<svg xmlns="http://www.w3.org/2000/svg"  viewBox="0 0 64 64" width="512px" height="512px" baseProfile="basic"><path fill="#68e5fd" d="M54,39c0-3.004-1.931-4.551-3-5v-6c0-1.105-0.895-2-2-2h-3v1.061c0,2.005-1.535,3.769-3.539,3.836	C38.742,31.021,34.977,26,34.977,26H30c0,0-4.118,5.161-8.176,5.01C19.662,30.929,18,29.047,18,26.883V26h-3c-1.105,0-2,0.895-2,2v6	c-1.069,0.449-3,2.074-3,5.078C10,43.977,14,46,14,46s-0.372,9.001,8.202,9.001c4.899,0,5.009-4.006,9.798-4.006	s4.899,4.006,9.798,4.006C50.372,55.001,50,46,50,46S54,43.899,54,39z"/><ellipse cx="32" cy="61" opacity=".3" rx="19" ry="3"/><ellipse cx="32" cy="23.156" fill="#68e5fd" rx="17" ry="17.147"/><path fill="none" stroke="#fff" stroke-linecap="round" stroke-linejoin="round" stroke-miterlimit="10" stroke-width="3" d="M22.969,13.137c1.431-1.304,3.138-2.186,5.021-2.779"/><circle cx="23.5" cy="47.5" r="2.5" fill="#9c34c2"/><circle cx="40.5" cy="47.5" r="2.5" fill="#9c34c2"/><path fill="#9c34c2" d="M32,43.977c-2.209,0-4,1.645-4,3.674v4.685c1.011-0.573,2.199-1.342,4-1.342	c1.801,0,2.989,0.756,4,1.329v-4.672C36,45.622,34.209,43.977,32,43.977z"/><path fill="#9c34c2" d="M44.498,43c-0.363,0-0.731-0.079-1.08-0.247l-11.371-5.458l-10.391,5.421 c-1.223,0.64-2.733,0.165-3.373-1.06c-0.639-1.224-0.164-2.734,1.06-3.373l11.5-6c0.698-0.365,1.527-0.379,2.238-0.038l12.5,6 c1.245,0.598,1.769,2.091,1.172,3.336C46.324,42.478,45.43,43,44.498,43z"/><path fill="#9c34c2" d="M48.952,22H15.037c0,0-0.073,0.125-0.039,4h3v0.883c0,2.163,1.01,4.117,3.824,4.117	c2.979,0,5.18-1.943,6.735-3.449C29.49,26.647,30.704,26,31.994,26s2.504,0.647,3.437,1.552c1.555,1.507,3.756,3.449,6.735,3.449	c2.814,0,3.824-1.954,3.824-4.117V26h3C49.025,22.125,48.952,22,48.952,22z"/><path fill="#fff" d="M15.064,21.875c0.354,0.078,0.71,0.128,1.062,0.128c2.014,0,3.913-1.226,4.673-3.22	c1.269-3.326,4.071-5.882,7.69-7.011c2.468-0.77,3.889-3.277,3.387-5.758C22.973,6.08,15.713,13.047,15.064,21.875z" opacity=".3"/><path d="M51.852,34.502C50.17,35.308,49,37.011,49,39c0,1.568-1.045,2.379-1.38,2.599	c-1.817,0.851-2.701,2.533-2.617,4.547c0.011,0.7-0.223,2.403-1.013,3.206C43.832,49.513,43.351,50,41.799,50	c-2.133,0-3.941,1.342-4.659,3.222c1.154,0.921,2.394,1.778,4.659,1.778C50.372,55.001,50,46,50,46s4-2.101,4-7	C54,36.694,52.864,35.254,51.852,34.502z" opacity=".15"/></svg>